<?xml version="1.0" ?>
	<!DOCTYPE svg PUBLIC "-//W3C//DTD SVG 1.1//EN"
	  "http://www.w3.org/Graphics/SVG/1.1/DTD/svg11.dtd">
	<svg width="800px" height="800px" viewBox="0 0 800 800"
	     xmlns="http://www.w3.org/2000/svg" version="1.1">
	  <title>BSpline</title>
	  <desc>Convert straight lines to curves</desc>
	  <!-- Points -->
	  <g stroke="rgba(255,0,0,255)" stroke-linecap="round" stroke-width="6" fill="none">
	    
		<path d="M50,589 L50,589" />
	    
		<path d="M50,589 L50,589" />
	    
		<path d="M50,589 L50,589" />
	    
		<path d="M50,589 L50,589" />
	    
		<path d="M50,589 L50,589" />
	    
		<path d="M50,589 L50,589" />
	    
		<path d="M50,589 L50,589" />
	    
		<path d="M50,589 L50,589" />
	    
		<path d="M50,589 L50,589" />
	    
		<path d="M50,589 L50,589" />
	    
		<path d="M50,589 L50,589" />
	    
		<path d="M50,589 L50,589" />
	    
		<path d="M50,589 L50,589" />
	    
		<path d="M50,589 L50,589" />
	    
		<path d="M50,589 L50,589" />
	    
		<path d="M50,589 L50,589" />
	    
		<path d="M50,589 L50,589" />
	    
		<path d="M50,589 L50,589" />
	    
		<path d="M50,589 L50,589" />
	    
		<path d="M50,589 L50,589" />
	    
		<path d="M50,589 L50,589" />
	    
		<path d="M50,589 L50,589" />
	    
		<path d="M50,589 L50,589" />
	    
		<path d="M50,589 L50,589" />
	    
		<path d="M50,589 L50,589" />
	    
		<path d="M50,589 L50,589" />
	    
		<path d="M50,589 L50,589" />
	    
		<path d="M50,589 L50,589" />
	    
		<path d="M50,589 L50,589" />
	    
		<path d="M50,589 L50,589" />
	    
		<path d="M50,589 L50,589" />
	    
		<path d="M50,589 L50,589" />
	    
		<path d="M50,589 L50,589" />
	    
		<path d="M50,589 L50,589" />
	    
		<path d="M50,589 L50,589" />
	    
		<path d="M50,589 L50,589" />
	    
		<path d="M50,589 L50,589" />
	    
		<path d="M50,589 L50,589" />
	    
		<path d="M50,589 L50,589" />
	    
		<path d="M50,589 L50,589" />
	    
		<path d="M50,589 L50,589" />
	    
		<path d="M50,589 L50,589" />
	    
		<path d="M50,589 L50,589" />
	    
		<path d="M50,589 L50,589" />
	    
		<path d="M50,589 L50,589" />
	    
		<path d="M50,589 L50,589" />
	    
		<path d="M50,589 L50,589" />
	    
		<path d="M50,589 L50,589" />
	    
		<path d="M50,589 L50,589" />
	    
		<path d="M50,589 L50,589" />
	    
		<path d="M50,589 L50,589" />
	    
		<path d="M50,589 L50,589" />
	    
		<path d="M50,589 L50,589" />
	    
		<path d="M50,589 L50,589" />
	    
		<path d="M50,589 L50,589" />
	    
		<path d="M50,589 L50,589" />
	    
		<path d="M50,589 L50,589" />
	    
		<path d="M50,589 L50,589" />
	    
		<path d="M50,589 L50,588" />
	    
		<path d="M50,588 L51,587" />
	    
		<path d="M51,587 L51,586" />
	    
		<path d="M51,586 L52,585" />
	    
		<path d="M52,585 L53,583" />
	    
		<path d="M53,583 L54,581" />
	    
		<path d="M54,581 L56,578" />
	    
		<path d="M56,578 L58,574" />
	    
		<path d="M58,574 L60,570" />
	    
		<path d="M60,570 L63,564" />
	    
		<path d="M63,564 L66,559" />
	    
		<path d="M66,559 L69,552" />
	    
		<path d="M69,552 L73,544" />
	    
		<path d="M73,544 L78,535" />
	    
		<path d="M78,535 L83,526" />
	    
		<path d="M83,526 L88,515" />
	    
		<path d="M88,515 L95,503" />
	    
		<path d="M95,503 L101,491" />
	    
		<path d="M101,491 L109,479" />
	    
		<path d="M109,479 L116,466" />
	    
		<path d="M116,466 L125,453" />
	    
		<path d="M125,453 L134,440" />
	    
		<path d="M134,440 L143,427" />
	    
		<path d="M143,427 L154,415" />
	    
		<path d="M154,415 L164,404" />
	    
		<path d="M164,404 L176,393" />
	    
		<path d="M176,393 L187,384" />
	    
		<path d="M187,384 L200,375" />
	    
		<path d="M200,375 L213,368" />
	    
		<path d="M213,368 L226,363" />
	    
		<path d="M226,363 L240,359" />
	    
		<path d="M240,359 L255,357" />
	    
		<path d="M255,357 L270,357" />
	    
		<path d="M270,357 L286,359" />
	    
		<path d="M286,359 L302,363" />
	    
		<path d="M302,363 L319,368" />
	    
		<path d="M319,368 L335,374" />
	    
		<path d="M335,374 L352,382" />
	    
		<path d="M352,382 L368,390" />
	    
		<path d="M368,390 L385,398" />
	    
		<path d="M385,398 L401,406" />
	    
		<path d="M401,406 L417,414" />
	    
		<path d="M417,414 L433,422" />
	    
		<path d="M433,422 L448,429" />
	    
		<path d="M448,429 L462,435" />
	    
		<path d="M462,435 L475,440" />
	    
		<path d="M475,440 L488,443" />
	    
		<path d="M488,443 L500,444" />
	    
		<path d="M500,444 L510,444" />
	    
		<path d="M510,444 L520,441" />
	    
		<path d="M520,441 L528,435" />
	    
		<path d="M528,435 L535,427" />
	    
		<path d="M535,427 L541,417" />
	    
		<path d="M541,417 L546,406" />
	    
		<path d="M546,406 L550,393" />
	    
		<path d="M550,393 L553,378" />
	    
		<path d="M553,378 L556,363" />
	    
		<path d="M556,363 L558,347" />
	    
		<path d="M558,347 L560,330" />
	    
		<path d="M560,330 L561,314" />
	    
		<path d="M561,314 L562,297" />
	    
		<path d="M562,297 L563,282" />
	    
		<path d="M563,282 L564,266" />
	    
		<path d="M564,266 L565,252" />
	    
		<path d="M565,252 L566,240" />
	    
		<path d="M566,240 L568,229" />
	    
		<path d="M568,229 L570,219" />
	    
		<path d="M570,219 L573,212" />
	    
		<path d="M573,212 L576,208" />
	    
		<path d="M576,208 L580,206" />
	    
		<path d="M580,206 L584,205" />
	    
		<path d="M584,205 L589,206" />
	    
		<path d="M589,206 L594,209" />
	    
		<path d="M594,209 L599,213" />
	    
		<path d="M599,213 L604,218" />
	    
		<path d="M604,218 L609,224" />
	    
		<path d="M609,224 L614,230" />
	    
		<path d="M614,230 L619,236" />
	    
		<path d="M619,236 L624,242" />
	    
		<path d="M624,242 L628,248" />
	    
		<path d="M628,248 L632,253" />
	    
		<path d="M632,253 L635,257" />
	    
		<path d="M635,257 L638,261" />
	    
		<path d="M638,261 L640,263" />
	    
		<path d="M640,263 L641,263" />
	    
		<path d="M641,263 L641,262" />
	    
		<path d="M641,262 L640,258" />
	    
		<path d="M640,258 L638,253" />
	    
		<path d="M638,253 L636,246" />
	    
		<path d="M636,246 L632,239" />
	    
		<path d="M632,239 L627,230" />
	    
		<path d="M627,230 L622,221" />
	    
		<path d="M622,221 L615,211" />
	    
		<path d="M615,211 L608,202" />
	    
		<path d="M608,202 L601,193" />
	    
		<path d="M601,193 L592,184" />
	    
		<path d="M592,184 L583,177" />
	    
		<path d="M583,177 L573,170" />
	    
		<path d="M573,170 L563,166" />
	    
		<path d="M563,166 L552,162" />
	    
		<path d="M552,162 L540,161" />
	    
		<path d="M540,161 L528,163" />
	    
		<path d="M528,163 L515,167" />
	    
		<path d="M515,167 L502,174" />
	    
		<path d="M502,174 L489,184" />
	    
		<path d="M489,184 L475,196" />
	    
		<path d="M475,196 L460,212" />
	    
		<path d="M460,212 L446,229" />
	    
		<path d="M446,229 L431,248" />
	    
		<path d="M431,248 L416,269" />
	    
		<path d="M416,269 L401,291" />
	    
		<path d="M401,291 L386,314" />
	    
		<path d="M386,314 L371,337" />
	    
		<path d="M371,337 L356,361" />
	    
		<path d="M356,361 L340,384" />
	    
		<path d="M340,384 L325,408" />
	    
		<path d="M325,408 L310,430" />
	    
		<path d="M310,430 L296,452" />
	    
		<path d="M296,452 L281,472" />
	    
		<path d="M281,472 L267,491" />
	    
		<path d="M267,491 L253,508" />
	    
		<path d="M253,508 L239,522" />
	    
		<path d="M239,522 L226,535" />
	    
		<path d="M226,535 L213,545" />
	    
		<path d="M213,545 L201,553" />
	    
		<path d="M201,553 L189,558" />
	    
		<path d="M189,558 L177,562" />
	    
		<path d="M177,562 L166,564" />
	    
		<path d="M166,564 L155,564" />
	    
		<path d="M155,564 L145,563" />
	    
		<path d="M145,563 L135,559" />
	    
		<path d="M135,559 L126,555" />
	    
		<path d="M126,555 L117,548" />
	    
		<path d="M117,548 L108,541" />
	    
		<path d="M108,541 L100,532" />
	    
		<path d="M100,532 L92,522" />
	    
		<path d="M92,522 L85,511" />
	    
		<path d="M85,511 L78,499" />
	    
		<path d="M78,499 L71,486" />
	    
		<path d="M71,486 L65,473" />
	    
		<path d="M65,473 L60,459" />
	    
		<path d="M60,459 L55,444" />
	    
		<path d="M55,444 L50,429" />
	    
		<path d="M50,429 L46,414" />
	    
		<path d="M46,414 L43,399" />
	    
		<path d="M43,399 L40,384" />
	    
		<path d="M40,384 L37,369" />
	    
		<path d="M37,369 L36,355" />
	    
		<path d="M36,355 L34,342" />
	    
		<path d="M34,342 L34,330" />
	    
		<path d="M34,330 L34,318" />
	    
		<path d="M34,318 L35,308" />
	    
		<path d="M35,308 L37,300" />
	    
		<path d="M37,300 L39,292" />
	    
		<path d="M39,292 L43,287" />
	    
		<path d="M43,287 L47,284" />
	    
		<path d="M47,284 L51,282" />
	    
		<path d="M51,282 L57,283" />
	    
		<path d="M57,283 L64,286" />
	    
		<path d="M64,286 L71,291" />
	    
		<path d="M71,291 L78,297" />
	    
		<path d="M78,297 L86,305" />
	    
		<path d="M86,305 L94,314" />
	    
		<path d="M94,314 L103,323" />
	    
		<path d="M103,323 L111,333" />
	    
		<path d="M111,333 L119,343" />
	    
		<path d="M119,343 L127,353" />
	    
		<path d="M127,353 L135,363" />
	    
		<path d="M135,363 L142,372" />
	    
		<path d="M142,372 L148,380" />
	    
		<path d="M148,380 L154,387" />
	    
		<path d="M154,387 L158,392" />
	    
		<path d="M158,392 L162,396" />
	    
		<path d="M162,396 L165,398" />
	    
		<path d="M165,398 L166,398" />
	    
		<path d="M166,398 L166,395" />
	    
		<path d="M166,395 L165,389" />
	    
		<path d="M165,389 L163,382" />
	    
		<path d="M163,382 L159,373" />
	    
		<path d="M159,373 L155,362" />
	    
		<path d="M155,362 L150,350" />
	    
		<path d="M150,350 L144,336" />
	    
		<path d="M144,336 L138,322" />
	    
		<path d="M138,322 L132,307" />
	    
		<path d="M132,307 L125,292" />
	    
		<path d="M125,292 L118,276" />
	    
		<path d="M118,276 L112,261" />
	    
		<path d="M112,261 L105,246" />
	    
		<path d="M105,246 L99,232" />
	    
		<path d="M99,232 L94,218" />
	    
		<path d="M94,218 L89,206" />
	    
		<path d="M89,206 L85,195" />
	    
		<path d="M85,195 L82,185" />
	    
		<path d="M82,185 L80,178" />
	    
		<path d="M80,178 L78,172" />
	    
		<path d="M78,172 L78,168" />
	    
		<path d="M78,168 L79,165" />
	    
		<path d="M79,165 L80,164" />
	    
		<path d="M80,164 L81,165" />
	    
		<path d="M81,165 L83,168" />
	    
		<path d="M83,168 L86,172" />
	    
		<path d="M86,172 L89,177" />
	    
		<path d="M89,177 L92,184" />
	    
		<path d="M92,184 L95,193" />
	    
		<path d="M95,193 L98,203" />
	    
		<path d="M98,203 L100,214" />
	    
		<path d="M100,214 L103,227" />
	    
		<path d="M103,227 L105,241" />
	    
		<path d="M105,241 L107,256" />
	    
		<path d="M107,256 L109,272" />
	    
		<path d="M109,272 L110,290" />
	    
		<path d="M110,290 L110,308" />
	    
		<path d="M110,308 L109,328" />
	    
		<path d="M109,328 L109,349" />
	    
		<path d="M109,349 L108,370" />
	    
		<path d="M108,370 L106,391" />
	    
		<path d="M106,391 L105,413" />
	    
		<path d="M105,413 L104,434" />
	    
		<path d="M104,434 L103,456" />
	    
		<path d="M103,456 L102,478" />
	    
		<path d="M102,478 L102,499" />
	    
		<path d="M102,499 L102,519" />
	    
		<path d="M102,519 L103,538" />
	    
		<path d="M103,538 L105,557" />
	    
		<path d="M105,557 L108,574" />
	    
		<path d="M108,574 L112,590" />
	    
		<path d="M112,590 L117,605" />
	    
		<path d="M117,605 L124,618" />
	    
		<path d="M124,618 L132,629" />
	    
		<path d="M132,629 L141,638" />
	    
		<path d="M141,638 L152,645" />
	    
		<path d="M152,645 L164,651" />
	    
		<path d="M164,651 L177,654" />
	    
		<path d="M177,654 L191,656" />
	    
		<path d="M191,656 L205,656" />
	    
		<path d="M205,656 L220,654" />
	    
		<path d="M220,654 L235,651" />
	    
		<path d="M235,651 L250,647" />
	    
		<path d="M250,647 L266,640" />
	    
		<path d="M266,640 L281,633" />
	    
		<path d="M281,633 L295,624" />
	    
		<path d="M295,624 L309,613" />
	    
		<path d="M309,613 L322,602" />
	    
		<path d="M322,602 L335,589" />
	    
		<path d="M335,589 L346,575" />
	    
		<path d="M346,575 L356,559" />
	    
		<path d="M356,559 L364,543" />
	    
		<path d="M364,543 L371,526" />
	    
		<path d="M371,526 L377,508" />
	    
		<path d="M377,508 L381,489" />
	    
		<path d="M381,489 L384,469" />
	    
		<path d="M384,469 L387,450" />
	    
		<path d="M387,450 L388,429" />
	    
		<path d="M388,429 L389,409" />
	    
		<path d="M389,409 L389,389" />
	    
		<path d="M389,389 L389,369" />
	    
		<path d="M389,369 L388,349" />
	    
		<path d="M388,349 L387,330" />
	    
		<path d="M387,330 L386,311" />
	    
		<path d="M386,311 L385,293" />
	    
		<path d="M385,293 L385,276" />
	    
		<path d="M385,276 L384,259" />
	    
		<path d="M384,259 L384,244" />
	    
		<path d="M384,244 L385,231" />
	    
		<path d="M385,231 L386,218" />
	    
		<path d="M386,218 L388,207" />
	    
		<path d="M388,207 L391,198" />
	    
		<path d="M391,198 L395,190" />
	    
		<path d="M395,190 L398,183" />
	    
		<path d="M398,183 L403,177" />
	    
		<path d="M403,177 L408,173" />
	    
		<path d="M408,173 L413,169" />
	    
		<path d="M413,169 L418,167" />
	    
		<path d="M418,167 L424,166" />
	    
		<path d="M424,166 L430,165" />
	    
		<path d="M430,165 L435,166" />
	    
		<path d="M435,166 L441,167" />
	    
		<path d="M441,167 L447,169" />
	    
		<path d="M447,169 L453,172" />
	    
		<path d="M453,172 L459,175" />
	    
		<path d="M459,175 L464,179" />
	    
		<path d="M464,179 L469,184" />
	    
		<path d="M469,184 L474,189" />
	    
		<path d="M474,189 L479,194" />
	    
		<path d="M479,194 L483,200" />
	    
		<path d="M483,200 L486,206" />
	    
		<path d="M486,206 L490,212" />
	    
		<path d="M490,212 L493,218" />
	    
		<path d="M493,218 L497,225" />
	    
		<path d="M497,225 L500,231" />
	    
		<path d="M500,231 L502,237" />
	    
		<path d="M502,237 L505,242" />
	    
		<path d="M505,242 L508,248" />
	    
		<path d="M508,248 L510,253" />
	    
		<path d="M510,253 L513,257" />
	    
		<path d="M513,257 L515,261" />
	    
		<path d="M515,261 L518,265" />
	    
		<path d="M518,265 L520,267" />
	    
		<path d="M520,267 L523,269" />
	    
		<path d="M523,269 L526,270" />
	    
		<path d="M526,270 L529,270" />
	    
		<path d="M529,270 L532,268" />
	    
		<path d="M532,268 L535,267" />
	    
		<path d="M535,267 L538,264" />
	    
		<path d="M538,264 L540,261" />
	    
		<path d="M540,261 L543,258" />
	    
		<path d="M543,258 L545,254" />
	    
		<path d="M545,254 L546,249" />
	    
		<path d="M546,249 L547,245" />
	    
		<path d="M547,245 L548,240" />
	    
		<path d="M548,240 L548,236" />
	    
		<path d="M548,236 L547,232" />
	    
		<path d="M547,232 L545,228" />
	    
		<path d="M545,228 L542,224" />
	    
		<path d="M542,224 L538,221" />
	    
		<path d="M538,221 L534,218" />
	    
		<path d="M534,218 L527,216" />
	    
		<path d="M527,216 L520,214" />
	    
		<path d="M520,214 L512,214" />
	    
		<path d="M512,214 L502,214" />
	    
		<path d="M502,214 L491,215" />
	    
		<path d="M491,215 L480,218" />
	    
		<path d="M480,218 L468,221" />
	    
		<path d="M468,221 L456,225" />
	    
		<path d="M456,225 L443,230" />
	    
		<path d="M443,230 L431,235" />
	    
		<path d="M431,235 L420,242" />
	    
		<path d="M420,242 L408,250" />
	    
		<path d="M408,250 L398,259" />
	    
		<path d="M398,259 L389,269" />
	    
		<path d="M389,269 L380,280" />
	    
		<path d="M380,280 L374,292" />
	    
		<path d="M374,292 L369,305" />
	    
		<path d="M369,305 L365,320" />
	    
		<path d="M365,320 L364,335" />
	    
		<path d="M364,335 L365,351" />
	    
		<path d="M365,351 L369,369" />
	    
		<path d="M369,369 L374,388" />
	    
		<path d="M374,388 L382,407" />
	    
		<path d="M382,407 L391,427" />
	    
		<path d="M391,427 L402,448" />
	    
		<path d="M402,448 L415,469" />
	    
		<path d="M415,469 L429,490" />
	    
		<path d="M429,490 L443,511" />
	    
		<path d="M443,511 L458,533" />
	    
		<path d="M458,533 L474,554" />
	    
		<path d="M474,554 L490,574" />
	    
		<path d="M490,574 L506,594" />
	    
		<path d="M506,594 L522,614" />
	    
		<path d="M522,614 L538,633" />
	    
		<path d="M538,633 L553,650" />
	    
		<path d="M553,650 L568,667" />
	    
		<path d="M568,667 L581,682" />
	    
		<path d="M581,682 L593,696" />
	    
		<path d="M593,696 L604,708" />
	    
		<path d="M604,708 L614,719" />
	    
		<path d="M614,719 L622,729" />
	    
		<path d="M622,729 L630,738" />
	    
		<path d="M630,738 L636,745" />
	    
		<path d="M636,745 L642,751" />
	    
		<path d="M642,751 L646,756" />
	    
		<path d="M646,756 L650,761" />
	    
		<path d="M650,761 L653,764" />
	    
		<path d="M653,764 L656,767" />
	    
		<path d="M656,767 L657,769" />
	    
		<path d="M657,769 L659,771" />
	    
		<path d="M659,771 L660,772" />
	    
		<path d="M660,772 L660,772" />
	    
		<path d="M660,772 L661,773" />
	    
		<path d="M661,773 L661,773" />
	    
		<path d="M661,773 L661,773" />
	    
		<path d="M661,773 L661,773" />
	    
		<path d="M661,773 L661,773" />
	    
		<path d="M661,773 L661,773" />
	    
		<path d="M661,773 L661,773" />
	    
		<path d="M661,773 L661,773" />
	    
		<path d="M661,773 L661,773" />
	    
		<path d="M661,773 L661,773" />
	    
		<path d="M661,773 L661,773" />
	    
		<path d="M661,773 L661,773" />
	    
		<path d="M661,773 L661,773" />
	    
		<path d="M661,773 L661,773" />
	    
		<path d="M661,773 L661,773" />
	    
		<path d="M661,773 L661,773" />
	    
		<path d="M661,773 L661,773" />
	    
		<path d="M661,773 L661,773" />
	    
		<path d="M661,773 L661,773" />
	    
		<path d="M661,773 L661,773" />
	    
		<path d="M661,773 L661,773" />
	    
		<path d="M661,773 L661,773" />
	    
		<path d="M661,773 L661,773" />
	    
		<path d="M661,773 L661,773" />
	    
		<path d="M661,773 L661,773" />
	    
		<path d="M661,773 L661,773" />
	    
		<path d="M661,773 L661,773" />
	    
		<path d="M661,773 L661,773" />
	    
		<path d="M661,773 L661,773" />
	    
		<path d="M661,773 L661,773" />
	    
		<path d="M661,773 L661,773" />
	    
		<path d="M661,773 L661,773" />
	    
		<path d="M661,773 L661,773" />
	    
		<path d="M661,773 L661,773" />
	    
		<path d="M661,773 L661,773" />
	    
		<path d="M661,773 L661,773" />
	    
		<path d="M661,773 L661,773" />
	    
		<path d="M661,773 L661,773" />
	    
		<path d="M661,773 L661,773" />
	    
		<path d="M661,773 L661,773" />
	    
		<path d="M661,773 L661,773" />
	    
		<path d="M661,773 L661,773" />
	    
		<path d="M661,773 L661,773" />
	    
		<path d="M661,773 L661,773" />
	    
		<path d="M661,773 L661,773" />
	    
		<path d="M661,773 L661,773" />
	    
		<path d="M661,773 L661,773" />
	    
		<path d="M661,773 L661,773" />
	    
		<path d="M661,773 L661,773" />
	    
		<path d="M661,773 L661,773" />
	    
		<path d="M661,773 L661,773" />
	    
		<path d="M661,773 L661,773" />
	    
		<path d="M661,773 L661,773" />
	    
		<path d="M661,773 L661,773" />
	    
		<path d="M661,773 L661,773" />
	    
		<path d="M661,773 L661,773" />
	    
		<path d="M661,773 L661,773" />
	    
		<path d="M661,773 L661,773" />
	    
		<path d="M661,773 L661,773" />
	    
		<path d="M661,773 L661,773" />
	    
		<path d="M661,773 L661,773" />
	    
		<path d="M661,773 L661,773" />
	    
		<path d="M661,773 L661,773" />
	    
		<path d="M661,773 L661,773" />
	    
		<path d="M661,773 L661,773" />
	    
		<path d="M661,773 L661,773" />
	    
		<path d="M661,773 L661,773" />
	    
		<path d="M661,773 L661,773" />
	    
		<path d="M661,773 L661,773" />
	    
		<path d="M661,773 L661,773" />
	    
		<path d="M661,773 L661,773" />
	    
		<path d="M661,773 L661,773" />
	    
		<path d="M661,773 L661,773" />
	    
		<path d="M661,773 L661,773" />
	    </g>
	</svg>