<?xml version="1.0" ?>
	<!DOCTYPE svg PUBLIC "-//W3C//DTD SVG 1.1//EN"
	  "http://www.w3.org/Graphics/SVG/1.1/DTD/svg11.dtd">
	<svg width="800px" height="800px" viewBox="0 0 800 800"
	     xmlns="http://www.w3.org/2000/svg" version="1.1">
	  <title>BSpline</title>
	  <desc>Convert straight lines to curves</desc>
	  <!-- Points -->
	  <g stroke="rgba(255,0,0,255)" stroke-linecap="round" stroke-width="6" fill="none">
	    
		<path d="M333,29 L333,29" />
	    
		<path d="M333,29 L333,29" />
	    
		<path d="M333,29 L333,29" />
	    
		<path d="M333,29 L333,29" />
	    
		<path d="M333,29 L333,29" />
	    
		<path d="M333,29 L333,29" />
	    
		<path d="M333,29 L333,29" />
	    
		<path d="M333,29 L333,29" />
	    
		<path d="M333,29 L333,29" />
	    
		<path d="M333,29 L333,29" />
	    
		<path d="M333,29 L333,29" />
	    
		<path d="M333,29 L333,29" />
	    
		<path d="M333,29 L333,29" />
	    
		<path d="M333,29 L333,29" />
	    
		<path d="M333,29 L333,29" />
	    
		<path d="M333,29 L333,29" />
	    
		<path d="M333,29 L333,29" />
	    
		<path d="M333,29 L333,29" />
	    
		<path d="M333,29 L333,29" />
	    
		<path d="M333,29 L333,29" />
	    
		<path d="M333,29 L333,29" />
	    
		<path d="M333,29 L333,29" />
	    
		<path d="M333,29 L333,29" />
	    
		<path d="M333,29 L333,29" />
	    
		<path d="M333,29 L333,29" />
	    
		<path d="M333,29 L333,29" />
	    
		<path d="M333,29 L333,29" />
	    
		<path d="M333,29 L333,29" />
	    
		<path d="M333,29 L333,29" />
	    
		<path d="M333,29 L333,29" />
	    
		<path d="M333,29 L333,29" />
	    
		<path d="M333,29 L333,29" />
	    
		<path d="M333,29 L333,29" />
	    
		<path d="M333,29 L333,29" />
	    
		<path d="M333,29 L333,29" />
	    
		<path d="M333,29 L333,29" />
	    
		<path d="M333,29 L333,29" />
	    
		<path d="M333,29 L333,29" />
	    
		<path d="M333,29 L333,29" />
	    
		<path d="M333,29 L333,29" />
	    
		<path d="M333,29 L333,29" />
	    
		<path d="M333,29 L333,29" />
	    
		<path d="M333,29 L333,29" />
	    
		<path d="M333,29 L333,29" />
	    
		<path d="M333,29 L333,29" />
	    
		<path d="M333,29 L333,29" />
	    
		<path d="M333,29 L333,29" />
	    
		<path d="M333,29 L333,29" />
	    
		<path d="M333,29 L333,29" />
	    
		<path d="M333,29 L333,29" />
	    
		<path d="M333,29 L333,29" />
	    
		<path d="M333,29 L333,29" />
	    
		<path d="M333,29 L333,29" />
	    
		<path d="M333,29 L333,29" />
	    
		<path d="M333,29 L333,29" />
	    
		<path d="M333,29 L333,29" />
	    
		<path d="M333,29 L333,29" />
	    
		<path d="M333,29 L333,30" />
	    
		<path d="M333,30 L332,30" />
	    
		<path d="M332,30 L332,31" />
	    
		<path d="M332,31 L331,32" />
	    
		<path d="M331,32 L330,34" />
	    
		<path d="M330,34 L329,37" />
	    
		<path d="M329,37 L327,40" />
	    
		<path d="M327,40 L325,43" />
	    
		<path d="M325,43 L323,48" />
	    
		<path d="M323,48 L320,53" />
	    
		<path d="M320,53 L316,60" />
	    
		<path d="M316,60 L312,67" />
	    
		<path d="M312,67 L307,75" />
	    
		<path d="M307,75 L302,85" />
	    
		<path d="M302,85 L296,96" />
	    
		<path d="M296,96 L289,108" />
	    
		<path d="M289,108 L282,122" />
	    
		<path d="M282,122 L274,136" />
	    
		<path d="M274,136 L266,151" />
	    
		<path d="M266,151 L258,167" />
	    
		<path d="M258,167 L250,184" />
	    
		<path d="M250,184 L242,200" />
	    
		<path d="M242,200 L235,217" />
	    
		<path d="M235,217 L229,233" />
	    
		<path d="M229,233 L224,249" />
	    
		<path d="M224,249 L220,264" />
	    
		<path d="M220,264 L218,279" />
	    
		<path d="M218,279 L217,293" />
	    
		<path d="M217,293 L218,305" />
	    
		<path d="M218,305 L221,316" />
	    
		<path d="M221,316 L226,325" />
	    
		<path d="M226,325 L234,333" />
	    
		<path d="M234,333 L245,338" />
	    
		<path d="M245,338 L258,342" />
	    
		<path d="M258,342 L274,343" />
	    
		<path d="M274,343 L292,342" />
	    
		<path d="M292,342 L312,340" />
	    
		<path d="M312,340 L334,335" />
	    
		<path d="M334,335 L357,330" />
	    
		<path d="M357,330 L382,324" />
	    
		<path d="M382,324 L407,316" />
	    
		<path d="M407,316 L432,308" />
	    
		<path d="M432,308 L457,299" />
	    
		<path d="M457,299 L482,291" />
	    
		<path d="M482,291 L507,281" />
	    
		<path d="M507,281 L530,273" />
	    
		<path d="M530,273 L552,264" />
	    
		<path d="M552,264 L573,256" />
	    
		<path d="M573,256 L591,248" />
	    
		<path d="M591,248 L607,242" />
	    
		<path d="M607,242 L621,236" />
	    
		<path d="M621,236 L631,232" />
	    
		<path d="M631,232 L639,229" />
	    
		<path d="M639,229 L644,228" />
	    
		<path d="M644,228 L647,228" />
	    
		<path d="M647,228 L648,229" />
	    
		<path d="M648,229 L647,231" />
	    
		<path d="M647,231 L644,235" />
	    
		<path d="M644,235 L640,240" />
	    
		<path d="M640,240 L634,246" />
	    
		<path d="M634,246 L628,253" />
	    
		<path d="M628,253 L621,261" />
	    
		<path d="M621,261 L613,271" />
	    
		<path d="M613,271 L605,281" />
	    
		<path d="M605,281 L597,293" />
	    
		<path d="M597,293 L589,306" />
	    
		<path d="M589,306 L582,320" />
	    
		<path d="M582,320 L575,335" />
	    
		<path d="M575,335 L569,351" />
	    
		<path d="M569,351 L564,368" />
	    
		<path d="M564,368 L560,386" />
	    
		<path d="M560,386 L557,404" />
	    
		<path d="M557,404 L554,423" />
	    
		<path d="M554,423 L552,442" />
	    
		<path d="M552,442 L550,461" />
	    
		<path d="M550,461 L548,480" />
	    
		<path d="M548,480 L546,499" />
	    
		<path d="M546,499 L544,516" />
	    
		<path d="M544,516 L541,533" />
	    
		<path d="M541,533 L538,550" />
	    
		<path d="M538,550 L533,564" />
	    
		<path d="M533,564 L528,578" />
	    
		<path d="M528,578 L522,590" />
	    
		<path d="M522,590 L514,600" />
	    
		<path d="M514,600 L504,608" />
	    
		<path d="M504,608 L493,614" />
	    
		<path d="M493,614 L480,618" />
	    
		<path d="M480,618 L465,619" />
	    
		<path d="M465,619 L449,617" />
	    
		<path d="M449,617 L431,614" />
	    
		<path d="M431,614 L412,609" />
	    
		<path d="M412,609 L392,602" />
	    
		<path d="M392,602 L372,594" />
	    
		<path d="M372,594 L352,585" />
	    
		<path d="M352,585 L333,575" />
	    
		<path d="M333,575 L314,565" />
	    
		<path d="M314,565 L296,554" />
	    
		<path d="M296,554 L280,544" />
	    
		<path d="M280,544 L266,533" />
	    
		<path d="M266,533 L253,523" />
	    
		<path d="M253,523 L243,513" />
	    
		<path d="M243,513 L236,505" />
	    
		<path d="M236,505 L231,498" />
	    
		<path d="M231,498 L230,492" />
	    
		<path d="M230,492 L233,488" />
	    
		<path d="M233,488 L240,485" />
	    
		<path d="M240,485 L250,484" />
	    
		<path d="M250,484 L264,485" />
	    
		<path d="M264,485 L280,486" />
	    
		<path d="M280,486 L298,489" />
	    
		<path d="M298,489 L318,492" />
	    
		<path d="M318,492 L340,495" />
	    
		<path d="M340,495 L362,498" />
	    
		<path d="M362,498 L385,502" />
	    
		<path d="M385,502 L409,505" />
	    
		<path d="M409,505 L432,507" />
	    
		<path d="M432,507 L455,509" />
	    
		<path d="M455,509 L476,510" />
	    
		<path d="M476,510 L496,509" />
	    
		<path d="M496,509 L514,507" />
	    
		<path d="M514,507 L530,503" />
	    
		<path d="M530,503 L544,497" />
	    
		<path d="M544,497 L554,489" />
	    
		<path d="M554,489 L561,479" />
	    
		<path d="M561,479 L565,467" />
	    
		<path d="M565,467 L566,453" />
	    
		<path d="M566,453 L565,437" />
	    
		<path d="M565,437 L562,420" />
	    
		<path d="M562,420 L556,402" />
	    
		<path d="M556,402 L549,383" />
	    
		<path d="M549,383 L540,363" />
	    
		<path d="M540,363 L530,343" />
	    
		<path d="M530,343 L519,323" />
	    
		<path d="M519,323 L507,303" />
	    
		<path d="M507,303 L495,283" />
	    
		<path d="M495,283 L481,264" />
	    
		<path d="M481,264 L468,245" />
	    
		<path d="M468,245 L455,228" />
	    
		<path d="M455,228 L443,212" />
	    
		<path d="M443,212 L430,197" />
	    
		<path d="M430,197 L419,184" />
	    
		<path d="M419,184 L409,172" />
	    
		<path d="M409,172 L399,162" />
	    
		<path d="M399,162 L390,154" />
	    
		<path d="M390,154 L383,148" />
	    
		<path d="M383,148 L376,143" />
	    
		<path d="M376,143 L369,140" />
	    
		<path d="M369,140 L364,138" />
	    
		<path d="M364,138 L359,137" />
	    
		<path d="M359,137 L355,138" />
	    
		<path d="M355,138 L352,140" />
	    
		<path d="M352,140 L349,144" />
	    
		<path d="M349,144 L347,148" />
	    
		<path d="M347,148 L345,154" />
	    
		<path d="M345,154 L345,161" />
	    
		<path d="M345,161 L344,169" />
	    
		<path d="M344,169 L345,178" />
	    
		<path d="M345,178 L346,188" />
	    
		<path d="M346,188 L347,199" />
	    
		<path d="M347,199 L349,211" />
	    
		<path d="M349,211 L351,224" />
	    
		<path d="M351,224 L353,237" />
	    
		<path d="M353,237 L356,250" />
	    
		<path d="M356,250 L358,263" />
	    
		<path d="M358,263 L361,277" />
	    
		<path d="M361,277 L363,291" />
	    
		<path d="M363,291 L365,304" />
	    
		<path d="M365,304 L367,317" />
	    
		<path d="M367,317 L368,329" />
	    
		<path d="M368,329 L368,341" />
	    
		<path d="M368,341 L368,352" />
	    
		<path d="M368,352 L367,362" />
	    
		<path d="M367,362 L365,371" />
	    
		<path d="M365,371 L362,379" />
	    
		<path d="M362,379 L358,385" />
	    
		<path d="M358,385 L353,390" />
	    
		<path d="M353,390 L346,393" />
	    
		<path d="M346,393 L339,394" />
	    
		<path d="M339,394 L330,394" />
	    
		<path d="M330,394 L321,393" />
	    
		<path d="M321,393 L312,391" />
	    
		<path d="M312,391 L302,387" />
	    
		<path d="M302,387 L292,383" />
	    
		<path d="M292,383 L283,377" />
	    
		<path d="M283,377 L274,371" />
	    
		<path d="M274,371 L266,365" />
	    
		<path d="M266,365 L259,358" />
	    
		<path d="M259,358 L254,351" />
	    
		<path d="M254,351 L250,343" />
	    
		<path d="M250,343 L248,336" />
	    
		<path d="M248,336 L248,329" />
	    
		<path d="M248,329 L250,322" />
	    
		<path d="M250,322 L254,315" />
	    
		<path d="M254,315 L262,309" />
	    
		<path d="M262,309 L272,303" />
	    
		<path d="M272,303 L285,299" />
	    
		<path d="M285,299 L300,294" />
	    
		<path d="M300,294 L317,290" />
	    
		<path d="M317,290 L335,287" />
	    
		<path d="M335,287 L355,283" />
	    
		<path d="M355,283 L375,281" />
	    
		<path d="M375,281 L395,278" />
	    
		<path d="M395,278 L415,275" />
	    
		<path d="M415,275 L434,273" />
	    
		<path d="M434,273 L452,271" />
	    
		<path d="M452,271 L469,268" />
	    
		<path d="M469,268 L484,266" />
	    
		<path d="M484,266 L497,264" />
	    
		<path d="M497,264 L508,261" />
	    
		<path d="M508,261 L515,258" />
	    
		<path d="M515,258 L519,255" />
	    
		<path d="M519,255 L519,251" />
	    
		<path d="M519,251 L515,248" />
	    
		<path d="M515,248 L507,243" />
	    
		<path d="M507,243 L496,239" />
	    
		<path d="M496,239 L482,235" />
	    
		<path d="M482,235 L465,230" />
	    
		<path d="M465,230 L446,226" />
	    
		<path d="M446,226 L425,222" />
	    
		<path d="M425,222 L402,218" />
	    
		<path d="M402,218 L378,214" />
	    
		<path d="M378,214 L353,211" />
	    
		<path d="M353,211 L327,209" />
	    
		<path d="M327,209 L302,207" />
	    
		<path d="M302,207 L276,206" />
	    
		<path d="M276,206 L251,205" />
	    
		<path d="M251,205 L227,206" />
	    
		<path d="M227,206 L205,208" />
	    
		<path d="M205,208 L183,210" />
	    
		<path d="M183,210 L164,214" />
	    
		<path d="M164,214 L147,220" />
	    
		<path d="M147,220 L132,226" />
	    
		<path d="M132,226 L119,234" />
	    
		<path d="M119,234 L108,242" />
	    
		<path d="M108,242 L98,252" />
	    
		<path d="M98,252 L90,262" />
	    
		<path d="M90,262 L84,274" />
	    
		<path d="M84,274 L79,286" />
	    
		<path d="M79,286 L75,299" />
	    
		<path d="M75,299 L73,313" />
	    
		<path d="M73,313 L71,327" />
	    
		<path d="M71,327 L71,342" />
	    
		<path d="M71,342 L71,358" />
	    
		<path d="M71,358 L72,373" />
	    
		<path d="M72,373 L73,390" />
	    
		<path d="M73,390 L76,406" />
	    
		<path d="M76,406 L78,423" />
	    
		<path d="M78,423 L81,440" />
	    
		<path d="M81,440 L84,457" />
	    
		<path d="M84,457 L87,474" />
	    
		<path d="M87,474 L90,491" />
	    
		<path d="M90,491 L93,507" />
	    
		<path d="M93,507 L97,523" />
	    
		<path d="M97,523 L101,538" />
	    
		<path d="M101,538 L105,552" />
	    
		<path d="M105,552 L109,565" />
	    
		<path d="M109,565 L113,577" />
	    
		<path d="M113,577 L117,588" />
	    
		<path d="M117,588 L121,597" />
	    
		<path d="M121,597 L126,604" />
	    
		<path d="M126,604 L131,610" />
	    
		<path d="M131,610 L135,614" />
	    
		<path d="M135,614 L140,615" />
	    
		<path d="M140,615 L145,614" />
	    
		<path d="M145,614 L150,611" />
	    
		<path d="M150,611 L155,605" />
	    
		<path d="M155,605 L160,597" />
	    
		<path d="M160,597 L165,587" />
	    
		<path d="M165,587 L170,574" />
	    
		<path d="M170,574 L176,560" />
	    
		<path d="M176,560 L182,544" />
	    
		<path d="M182,544 L188,527" />
	    
		<path d="M188,527 L194,510" />
	    
		<path d="M194,510 L201,492" />
	    
		<path d="M201,492 L208,473" />
	    
		<path d="M208,473 L216,455" />
	    
		<path d="M216,455 L224,436" />
	    
		<path d="M224,436 L233,418" />
	    
		<path d="M233,418 L242,401" />
	    
		<path d="M242,401 L252,385" />
	    
		<path d="M252,385 L263,371" />
	    
		<path d="M263,371 L274,358" />
	    
		<path d="M274,358 L286,346" />
	    
		<path d="M286,346 L299,337" />
	    
		<path d="M299,337 L313,331" />
	    
		<path d="M313,331 L327,326" />
	    
		<path d="M327,326 L342,323" />
	    
		<path d="M342,323 L357,321" />
	    
		<path d="M357,321 L372,322" />
	    
		<path d="M372,322 L387,324" />
	    
		<path d="M387,324 L402,327" />
	    
		<path d="M402,327 L417,332" />
	    
		<path d="M417,332 L432,338" />
	    
		<path d="M432,338 L446,345" />
	    
		<path d="M446,345 L460,353" />
	    
		<path d="M460,353 L473,362" />
	    
		<path d="M473,362 L485,371" />
	    
		<path d="M485,371 L496,381" />
	    
		<path d="M496,381 L506,391" />
	    
		<path d="M506,391 L514,402" />
	    
		<path d="M514,402 L522,413" />
	    
		<path d="M522,413 L528,424" />
	    
		<path d="M528,424 L532,435" />
	    
		<path d="M532,435 L536,446" />
	    
		<path d="M536,446 L538,457" />
	    
		<path d="M538,457 L539,467" />
	    
		<path d="M539,467 L539,478" />
	    
		<path d="M539,478 L539,488" />
	    
		<path d="M539,488 L538,497" />
	    
		<path d="M538,497 L536,506" />
	    
		<path d="M536,506 L535,514" />
	    
		<path d="M535,514 L533,522" />
	    
		<path d="M533,522 L531,529" />
	    
		<path d="M531,529 L529,535" />
	    
		<path d="M529,535 L527,541" />
	    
		<path d="M527,541 L525,545" />
	    
		<path d="M525,545 L524,548" />
	    
		<path d="M524,548 L524,550" />
	    
		<path d="M524,550 L524,551" />
	    
		<path d="M524,551 L526,551" />
	    
		<path d="M526,551 L528,550" />
	    
		<path d="M528,550 L530,548" />
	    
		<path d="M530,548 L533,545" />
	    
		<path d="M533,545 L536,541" />
	    
		<path d="M536,541 L540,537" />
	    
		<path d="M540,537 L543,533" />
	    
		<path d="M543,533 L546,528" />
	    
		<path d="M546,528 L549,524" />
	    
		<path d="M549,524 L552,519" />
	    
		<path d="M552,519 L554,515" />
	    
		<path d="M554,515 L555,512" />
	    
		<path d="M555,512 L555,509" />
	    
		<path d="M555,509 L554,507" />
	    
		<path d="M554,507 L552,505" />
	    
		<path d="M552,505 L549,505" />
	    
		<path d="M549,505 L544,507" />
	    
		<path d="M544,507 L537,509" />
	    
		<path d="M537,509 L529,513" />
	    
		<path d="M529,513 L520,519" />
	    
		<path d="M520,519 L508,525" />
	    
		<path d="M508,525 L496,533" />
	    
		<path d="M496,533 L483,542" />
	    
		<path d="M483,542 L468,552" />
	    
		<path d="M468,552 L453,562" />
	    
		<path d="M453,562 L438,573" />
	    
		<path d="M438,573 L422,584" />
	    
		<path d="M422,584 L406,596" />
	    
		<path d="M406,596 L390,608" />
	    
		<path d="M390,608 L374,619" />
	    
		<path d="M374,619 L358,631" />
	    
		<path d="M358,631 L343,642" />
	    
		<path d="M343,642 L328,653" />
	    
		<path d="M328,653 L314,663" />
	    
		<path d="M314,663 L301,673" />
	    
		<path d="M301,673 L290,682" />
	    
		<path d="M290,682 L279,690" />
	    
		<path d="M279,690 L270,696" />
	    
		<path d="M270,696 L262,702" />
	    
		<path d="M262,702 L255,708" />
	    
		<path d="M255,708 L249,712" />
	    
		<path d="M249,712 L243,716" />
	    
		<path d="M243,716 L239,719" />
	    
		<path d="M239,719 L235,722" />
	    
		<path d="M235,722 L233,724" />
	    
		<path d="M233,724 L230,726" />
	    
		<path d="M230,726 L228,727" />
	    
		<path d="M228,727 L227,728" />
	    
		<path d="M227,728 L226,729" />
	    
		<path d="M226,729 L226,730" />
	    
		<path d="M226,730 L225,730" />
	    
		<path d="M225,730 L225,730" />
	    
		<path d="M225,730 L225,730" />
	    
		<path d="M225,730 L225,730" />
	    
		<path d="M225,730 L225,730" />
	    
		<path d="M225,730 L225,730" />
	    
		<path d="M225,730 L225,730" />
	    
		<path d="M225,730 L225,730" />
	    
		<path d="M225,730 L225,730" />
	    
		<path d="M225,730 L225,730" />
	    
		<path d="M225,730 L225,730" />
	    
		<path d="M225,730 L225,730" />
	    
		<path d="M225,730 L225,730" />
	    
		<path d="M225,730 L225,730" />
	    
		<path d="M225,730 L225,730" />
	    
		<path d="M225,730 L225,730" />
	    
		<path d="M225,730 L225,730" />
	    
		<path d="M225,730 L225,730" />
	    
		<path d="M225,730 L225,730" />
	    
		<path d="M225,730 L225,730" />
	    
		<path d="M225,730 L225,730" />
	    
		<path d="M225,730 L225,730" />
	    
		<path d="M225,730 L225,730" />
	    
		<path d="M225,730 L225,730" />
	    
		<path d="M225,730 L225,730" />
	    
		<path d="M225,730 L225,730" />
	    
		<path d="M225,730 L225,730" />
	    
		<path d="M225,730 L225,730" />
	    
		<path d="M225,730 L225,730" />
	    
		<path d="M225,730 L225,730" />
	    
		<path d="M225,730 L225,730" />
	    
		<path d="M225,730 L225,730" />
	    
		<path d="M225,730 L225,730" />
	    
		<path d="M225,730 L225,730" />
	    
		<path d="M225,730 L225,730" />
	    
		<path d="M225,730 L225,730" />
	    
		<path d="M225,730 L225,730" />
	    
		<path d="M225,730 L225,730" />
	    
		<path d="M225,730 L225,730" />
	    
		<path d="M225,730 L225,730" />
	    
		<path d="M225,730 L225,730" />
	    
		<path d="M225,730 L225,730" />
	    
		<path d="M225,730 L225,730" />
	    
		<path d="M225,730 L225,730" />
	    
		<path d="M225,730 L225,730" />
	    
		<path d="M225,730 L225,730" />
	    
		<path d="M225,730 L225,730" />
	    
		<path d="M225,730 L225,730" />
	    
		<path d="M225,730 L225,730" />
	    
		<path d="M225,730 L225,730" />
	    
		<path d="M225,730 L225,730" />
	    
		<path d="M225,730 L225,730" />
	    
		<path d="M225,730 L225,730" />
	    
		<path d="M225,730 L225,730" />
	    
		<path d="M225,730 L225,730" />
	    
		<path d="M225,730 L225,730" />
	    
		<path d="M225,730 L225,730" />
	    
		<path d="M225,730 L225,730" />
	    
		<path d="M225,730 L225,730" />
	    
		<path d="M225,730 L225,730" />
	    
		<path d="M225,730 L225,730" />
	    
		<path d="M225,730 L225,730" />
	    
		<path d="M225,730 L225,730" />
	    
		<path d="M225,730 L225,730" />
	    
		<path d="M225,730 L225,730" />
	    
		<path d="M225,730 L225,730" />
	    
		<path d="M225,730 L225,730" />
	    
		<path d="M225,730 L225,730" />
	    
		<path d="M225,730 L225,730" />
	    
		<path d="M225,730 L225,730" />
	    
		<path d="M225,730 L225,730" />
	    
		<path d="M225,730 L225,730" />
	    
		<path d="M225,730 L225,730" />
	    
		<path d="M225,730 L225,730" />
	    </g>
	</svg>